<svg width="177" height="211" viewBox="0 0 177 211" fill="none" xmlns="http://www.w3.org/2000/svg">
<g clip-path="url(#clip0_176_4237)">
<path d="M17.0938 153.782V149.217H41.9923V153.782H17.0938Z" fill="#059CC0" stroke="#0475A1"/>
<path d="M17.0938 190.704V186.139H41.9923V190.704H17.0938Z" fill="#059CC0" stroke="#0475A1"/>
<path d="M34.8694 210.174V136.07L29.5431 132.998L24.2168 136.07V210.174" fill="#F5F5F4"/>
<mask id="mask0_176_4237" style="mask-type:luminance" maskUnits="userSpaceOnUse" x="24" y="132" width="11" height="79">
<path d="M34.8694 210.174V136.07L29.5431 132.998L24.2168 136.07V210.174" fill="white"/>
</mask>
<g mask="url(#mask0_176_4237)">
<path d="M34.8694 136.07H35.8694V135.492L35.369 135.204L34.8694 136.07ZM29.5431 132.998L30.0427 132.132L29.5431 131.844L29.0435 132.132L29.5431 132.998ZM24.2168 136.07L23.7172 135.204L23.2168 135.492V136.07H24.2168ZM35.8694 210.174V136.07H33.8694V210.174H35.8694ZM35.369 135.204L30.0427 132.132L29.0435 133.865L34.3698 136.936L35.369 135.204ZM29.0435 132.132L23.7172 135.204L24.7164 136.936L30.0427 133.865L29.0435 132.132ZM23.2168 136.07V210.174H25.2168V136.07H23.2168Z" fill="#0475A1"/>
</g>
<path d="M34.8694 210.174V136.07L29.5431 132.998L24.2168 136.07" stroke="#0475A1" stroke-miterlimit="10"/>
<path d="M29.554 151.499C29.554 151.501 29.5535 151.502 29.5535 151.502L29.551 151.506L29.5472 151.509C29.5472 151.509 29.5453 151.509 29.5427 151.509C29.5401 151.509 29.5382 151.509 29.5382 151.509L29.5344 151.506L29.5319 151.502C29.5319 151.502 29.5312 151.501 29.5312 151.499C29.5312 151.497 29.5319 151.495 29.5319 151.495L29.5344 151.492C29.5357 151.49 29.5381 151.489 29.5381 151.489C29.5381 151.489 29.5401 151.488 29.5427 151.488C29.5453 151.488 29.5472 151.489 29.5472 151.489C29.5472 151.489 29.5497 151.49 29.551 151.492L29.5535 151.495C29.5535 151.495 29.554 151.497 29.554 151.499Z" fill="#059CC0" stroke="#0475A1"/>
<path d="M29.554 188.425C29.554 188.427 29.5535 188.428 29.5535 188.428C29.5535 188.428 29.5524 188.43 29.551 188.432L29.5472 188.434C29.5472 188.434 29.5453 188.435 29.5427 188.435C29.5401 188.435 29.5381 188.434 29.5381 188.434L29.5344 188.432C29.533 188.43 29.5319 188.428 29.5319 188.428C29.5319 188.428 29.5312 188.427 29.5312 188.425C29.5312 188.422 29.5319 188.421 29.5319 188.421L29.5344 188.418C29.5357 188.416 29.5381 188.415 29.5381 188.415C29.5381 188.415 29.5401 188.414 29.5427 188.414C29.5453 188.414 29.5472 188.415 29.5472 188.415C29.5472 188.415 29.5497 188.416 29.551 188.418L29.5535 188.421C29.5535 188.421 29.554 188.422 29.554 188.425Z" fill="#059CC0" stroke="#0475A1"/>
<path d="M35.3691 153.782V149.217H60.2676V153.782H35.3691Z" fill="#059CC0" stroke="#0475A1"/>
<path d="M35.3691 190.704V186.139H60.2676V190.704H35.3691Z" fill="#059CC0" stroke="#0475A1"/>
<path d="M53.1438 210.174V136.07L47.8175 132.998L42.4912 136.07V210.174" fill="#F5F5F4"/>
<mask id="mask1_176_4237" style="mask-type:luminance" maskUnits="userSpaceOnUse" x="42" y="132" width="12" height="79">
<path d="M53.1438 210.174V136.07L47.8175 132.998L42.4912 136.07V210.174" fill="white"/>
</mask>
<g mask="url(#mask1_176_4237)">
<path d="M53.1438 136.07H54.1438V135.492L53.6434 135.204L53.1438 136.07ZM47.8175 132.998L48.3171 132.132L47.8175 131.844L47.3179 132.132L47.8175 132.998ZM42.4912 136.07L41.9916 135.204L41.4912 135.492V136.07H42.4912ZM54.1438 210.174V136.07H52.1438V210.174H54.1438ZM53.6434 135.204L48.3171 132.132L47.3179 133.865L52.6442 136.936L53.6434 135.204ZM47.3179 132.132L41.9916 135.204L42.9908 136.936L48.3171 133.865L47.3179 132.132ZM41.4912 136.07V210.174H43.4912V136.07H41.4912Z" fill="#0475A1"/>
</g>
<path d="M53.1438 210.174V136.07L47.8175 132.998L42.4912 136.07" stroke="#0475A1" stroke-miterlimit="10"/>
<path d="M47.8293 151.499C47.8293 151.501 47.8288 151.502 47.8288 151.502L47.8263 151.506L47.8225 151.509C47.8225 151.509 47.8206 151.509 47.818 151.509C47.8154 151.509 47.8134 151.509 47.8134 151.509L47.8097 151.506L47.8072 151.502C47.8072 151.502 47.8066 151.501 47.8066 151.499C47.8066 151.497 47.8072 151.495 47.8072 151.495L47.8097 151.492C47.811 151.49 47.8134 151.489 47.8134 151.489C47.8134 151.489 47.8154 151.488 47.818 151.488C47.8206 151.488 47.8225 151.489 47.8225 151.489C47.8225 151.489 47.825 151.49 47.8263 151.492L47.8288 151.495C47.8288 151.495 47.8293 151.497 47.8293 151.499Z" fill="#059CC0" stroke="#0475A1"/>
<path d="M47.8293 188.425C47.8293 188.427 47.8288 188.428 47.8288 188.428C47.8288 188.428 47.8277 188.43 47.8263 188.432L47.8225 188.434C47.8225 188.434 47.8206 188.435 47.818 188.435C47.8154 188.435 47.8134 188.434 47.8134 188.434L47.8097 188.432C47.8083 188.43 47.8072 188.428 47.8072 188.428C47.8072 188.428 47.8066 188.427 47.8066 188.425C47.8066 188.422 47.8072 188.421 47.8072 188.421L47.8097 188.418C47.811 188.416 47.8134 188.415 47.8134 188.415C47.8134 188.415 47.8154 188.414 47.818 188.414C47.8206 188.414 47.8225 188.415 47.8225 188.415C47.8225 188.415 47.825 188.416 47.8263 188.418L47.8288 188.421C47.8288 188.421 47.8293 188.422 47.8293 188.425Z" fill="#059CC0" stroke="#0475A1"/>
<path d="M53.6445 153.782V149.217H78.543V153.782H53.6445Z" fill="#059CC0" stroke="#0475A1"/>
<path d="M53.6445 190.704V186.139H78.543V190.704H53.6445Z" fill="#059CC0" stroke="#0475A1"/>
<path d="M71.4202 210.174V136.07L66.0939 132.998L60.7676 136.07V210.174" fill="#F5F5F4"/>
<mask id="mask2_176_4237" style="mask-type:luminance" maskUnits="userSpaceOnUse" x="60" y="132" width="12" height="79">
<path d="M71.4202 210.174V136.07L66.0939 132.998L60.7676 136.07V210.174" fill="white"/>
</mask>
<g mask="url(#mask2_176_4237)">
<path d="M71.4202 136.07H72.4202V135.492L71.9198 135.204L71.4202 136.07ZM66.0939 132.998L66.5935 132.132L66.0939 131.844L65.5943 132.132L66.0939 132.998ZM60.7676 136.07L60.268 135.204L59.7676 135.492V136.07H60.7676ZM72.4202 210.174V136.07H70.4202V210.174H72.4202ZM71.9198 135.204L66.5935 132.132L65.5943 133.865L70.9206 136.936L71.9198 135.204ZM65.5943 132.132L60.268 135.204L61.2672 136.936L66.5935 133.865L65.5943 132.132ZM59.7676 136.07V210.174H61.7676V136.07H59.7676Z" fill="#0475A1"/>
</g>
<path d="M71.4202 210.174V136.07L66.0939 132.998L60.7676 136.07" stroke="#0475A1" stroke-miterlimit="10"/>
<path d="M66.1047 151.499C66.1047 151.501 66.1042 151.502 66.1042 151.502L66.1017 151.506L66.0979 151.509C66.0979 151.509 66.096 151.509 66.0934 151.509C66.0908 151.509 66.0888 151.509 66.0888 151.509L66.0851 151.506L66.0826 151.502C66.0826 151.502 66.082 151.501 66.082 151.499C66.082 151.497 66.0826 151.495 66.0826 151.495L66.085 151.492C66.0864 151.49 66.0888 151.489 66.0888 151.489C66.0888 151.489 66.0908 151.488 66.0934 151.488C66.096 151.488 66.0979 151.489 66.0979 151.489C66.0979 151.489 66.1004 151.49 66.1017 151.492L66.1042 151.495C66.1042 151.495 66.1047 151.497 66.1047 151.499Z" fill="#059CC0" stroke="#0475A1"/>
<path d="M66.1047 188.425C66.1047 188.427 66.1042 188.428 66.1042 188.428C66.1042 188.428 66.1031 188.43 66.1017 188.432L66.0979 188.434C66.0979 188.434 66.096 188.435 66.0934 188.435C66.0908 188.435 66.0888 188.434 66.0888 188.434L66.085 188.432C66.0837 188.43 66.0826 188.428 66.0826 188.428C66.0826 188.428 66.082 188.427 66.082 188.425C66.082 188.422 66.0826 188.421 66.0826 188.421L66.085 188.418C66.0864 188.416 66.0888 188.415 66.0888 188.415C66.0888 188.415 66.0908 188.414 66.0934 188.414C66.096 188.414 66.0979 188.415 66.0979 188.415C66.0979 188.415 66.1004 188.416 66.1017 188.418L66.1042 188.421C66.1042 188.421 66.1047 188.422 66.1047 188.425Z" fill="#059CC0" stroke="#0475A1"/>
<path d="M71.9199 153.782V149.217H96.8184V153.782H71.9199Z" fill="#059CC0" stroke="#0475A1"/>
<path d="M71.9199 190.704V186.139H96.8184V190.704H71.9199Z" fill="#059CC0" stroke="#0475A1"/>
<path d="M89.6946 210.174V136.07L84.3683 132.998L79.042 136.07V210.174" fill="#F5F5F4"/>
<mask id="mask3_176_4237" style="mask-type:luminance" maskUnits="userSpaceOnUse" x="79" y="132" width="11" height="79">
<path d="M89.6946 210.174V136.07L84.3683 132.998L79.042 136.07V210.174" fill="white"/>
</mask>
<g mask="url(#mask3_176_4237)">
<path d="M89.6946 136.07H90.6946V135.492L90.1942 135.204L89.6946 136.07ZM84.3683 132.998L84.8679 132.132L84.3683 131.844L83.8687 132.132L84.3683 132.998ZM79.042 136.07L78.5424 135.204L78.042 135.492V136.07H79.042ZM90.6946 210.174V136.07H88.6946V210.174H90.6946ZM90.1942 135.204L84.8679 132.132L83.8687 133.865L89.195 136.936L90.1942 135.204ZM83.8687 132.132L78.5424 135.204L79.5416 136.936L84.8679 133.865L83.8687 132.132ZM78.042 136.07V210.174H80.042V136.07H78.042Z" fill="#0475A1"/>
</g>
<path d="M89.6946 210.174V136.07L84.3683 132.998L79.042 136.07" stroke="#0475A1" stroke-miterlimit="10"/>
<path d="M84.3801 151.499C84.3801 151.501 84.3796 151.502 84.3796 151.502L84.3771 151.506L84.3733 151.509C84.3733 151.509 84.3714 151.509 84.3688 151.509C84.3662 151.509 84.3642 151.509 84.3642 151.509L84.3604 151.506L84.358 151.502C84.358 151.502 84.3574 151.501 84.3574 151.499C84.3574 151.497 84.358 151.495 84.358 151.495L84.3604 151.492C84.3618 151.49 84.3642 151.489 84.3642 151.489C84.3642 151.489 84.3662 151.488 84.3688 151.488C84.3714 151.488 84.3733 151.489 84.3733 151.489C84.3733 151.489 84.3758 151.49 84.3771 151.492L84.3796 151.495C84.3796 151.495 84.3801 151.497 84.3801 151.499Z" fill="#059CC0" stroke="#0475A1"/>
<path d="M84.3801 188.425C84.3801 188.427 84.3796 188.428 84.3796 188.428C84.3796 188.428 84.3785 188.43 84.3771 188.432L84.3733 188.434C84.3733 188.434 84.3714 188.435 84.3688 188.435C84.3662 188.435 84.3642 188.434 84.3642 188.434L84.3604 188.432C84.3591 188.43 84.358 188.428 84.358 188.428C84.358 188.428 84.3574 188.427 84.3574 188.425C84.3574 188.422 84.358 188.421 84.358 188.421L84.3604 188.418C84.3618 188.416 84.3642 188.415 84.3642 188.415C84.3642 188.415 84.3662 188.414 84.3688 188.414C84.3714 188.414 84.3733 188.415 84.3733 188.415C84.3733 188.415 84.3758 188.416 84.3771 188.418L84.3796 188.421C84.3796 188.421 84.3801 188.422 84.3801 188.425Z" fill="#059CC0" stroke="#0475A1"/>
<path d="M90.1953 153.782V149.217H115.094V153.782H90.1953Z" fill="#059CC0" stroke="#0475A1"/>
<path d="M90.1953 190.704V186.139H115.094V190.704H90.1953Z" fill="#059CC0" stroke="#0475A1"/>
<path d="M107.968 210.174V136.07L102.642 132.998L97.3154 136.07V210.174" fill="#F5F5F4"/>
<mask id="mask4_176_4237" style="mask-type:luminance" maskUnits="userSpaceOnUse" x="97" y="132" width="11" height="79">
<path d="M107.968 210.174V136.07L102.642 132.998L97.3154 136.07V210.174" fill="white"/>
</mask>
<g mask="url(#mask4_176_4237)">
<path d="M107.968 136.07H108.968V135.492L108.468 135.204L107.968 136.07ZM102.642 132.998L103.142 132.132L102.642 131.844L102.142 132.132L102.642 132.998ZM97.3154 136.07L96.8158 135.204L96.3154 135.492V136.07H97.3154ZM108.968 210.174V136.07H106.968V210.174H108.968ZM108.468 135.204L103.142 132.132L102.142 133.865L107.469 136.936L108.468 135.204ZM102.142 132.132L96.8158 135.204L97.815 136.936L103.142 133.865L102.142 132.132ZM96.3154 136.07V210.174H98.3154V136.07H96.3154Z" fill="#0475A1"/>
</g>
<path d="M107.968 210.174V136.07L102.642 132.998L97.3154 136.07" stroke="#0475A1" stroke-miterlimit="10"/>
<path d="M102.654 151.499C102.654 151.501 102.653 151.502 102.653 151.502L102.651 151.506C102.649 151.507 102.647 151.509 102.647 151.509C102.647 151.509 102.645 151.509 102.642 151.509C102.64 151.509 102.638 151.509 102.638 151.509C102.638 151.509 102.636 151.507 102.634 151.506L102.632 151.502C102.632 151.502 102.631 151.501 102.631 151.499C102.631 151.497 102.632 151.495 102.632 151.495L102.634 151.492C102.636 151.49 102.638 151.489 102.638 151.489C102.638 151.489 102.64 151.488 102.642 151.488C102.645 151.488 102.647 151.489 102.647 151.489C102.647 151.489 102.649 151.49 102.651 151.492L102.653 151.495C102.653 151.495 102.654 151.497 102.654 151.499Z" fill="#059CC0" stroke="#0475A1"/>
<path d="M102.654 188.425C102.654 188.427 102.653 188.428 102.653 188.428C102.653 188.428 102.652 188.43 102.651 188.432C102.649 188.433 102.647 188.434 102.647 188.434C102.647 188.434 102.645 188.435 102.642 188.435C102.64 188.435 102.638 188.434 102.638 188.434C102.638 188.434 102.636 188.433 102.634 188.432C102.633 188.43 102.632 188.428 102.632 188.428C102.632 188.428 102.631 188.427 102.631 188.425C102.631 188.422 102.632 188.421 102.632 188.421L102.634 188.418C102.636 188.416 102.638 188.415 102.638 188.415C102.638 188.415 102.64 188.414 102.642 188.414C102.645 188.414 102.647 188.415 102.647 188.415C102.647 188.415 102.649 188.416 102.651 188.418L102.653 188.421C102.653 188.421 102.654 188.422 102.654 188.425Z" fill="#059CC0" stroke="#0475A1"/>
<path d="M108.469 153.782V149.217H133.367V153.782H108.469Z" fill="#059CC0" stroke="#0475A1"/>
<path d="M108.469 190.704V186.139H133.367V190.704H108.469Z" fill="#059CC0" stroke="#0475A1"/>
<path d="M126.244 210.174V136.07L120.917 132.998L115.591 136.07V210.174" fill="#F5F5F4"/>
<mask id="mask5_176_4237" style="mask-type:luminance" maskUnits="userSpaceOnUse" x="115" y="132" width="12" height="79">
<path d="M126.244 210.174V136.07L120.917 132.998L115.591 136.07V210.174" fill="white"/>
</mask>
<g mask="url(#mask5_176_4237)">
<path d="M126.244 136.07H127.244V135.492L126.743 135.204L126.244 136.07ZM120.917 132.998L121.417 132.132L120.917 131.844L120.418 132.132L120.917 132.998ZM115.591 136.07L115.092 135.204L114.591 135.492V136.07H115.591ZM127.244 210.174V136.07H125.244V210.174H127.244ZM126.743 135.204L121.417 132.132L120.418 133.865L125.744 136.936L126.743 135.204ZM120.418 132.132L115.092 135.204L116.091 136.936L121.417 133.865L120.418 132.132ZM114.591 136.07V210.174H116.591V136.07H114.591Z" fill="#0475A1"/>
</g>
<path d="M126.244 210.174V136.07L120.917 132.998L115.591 136.07" stroke="#0475A1" stroke-miterlimit="10"/>
<path d="M120.928 151.499C120.928 151.501 120.928 151.502 120.928 151.502C120.928 151.502 120.927 151.505 120.925 151.506L120.921 151.509C120.921 151.509 120.919 151.509 120.917 151.509C120.914 151.509 120.912 151.509 120.912 151.509L120.909 151.506C120.907 151.505 120.906 151.502 120.906 151.502C120.906 151.502 120.906 151.501 120.906 151.499C120.906 151.497 120.906 151.495 120.906 151.495C120.906 151.495 120.907 151.493 120.909 151.492C120.91 151.49 120.912 151.489 120.912 151.489C120.912 151.489 120.914 151.488 120.917 151.488C120.92 151.488 120.921 151.489 120.921 151.489C120.921 151.489 120.924 151.49 120.925 151.492C120.927 151.493 120.928 151.495 120.928 151.495C120.928 151.495 120.928 151.497 120.928 151.499Z" fill="#059CC0" stroke="#0475A1"/>
<path d="M120.928 188.425C120.928 188.427 120.928 188.428 120.928 188.428C120.928 188.428 120.927 188.43 120.925 188.432L120.921 188.434C120.921 188.434 120.92 188.435 120.917 188.435C120.914 188.435 120.912 188.434 120.912 188.434L120.909 188.432C120.907 188.43 120.906 188.428 120.906 188.428C120.906 188.428 120.906 188.427 120.906 188.425C120.906 188.422 120.906 188.421 120.906 188.421C120.906 188.421 120.907 188.419 120.909 188.418C120.91 188.416 120.912 188.415 120.912 188.415C120.912 188.415 120.914 188.414 120.917 188.414C120.92 188.414 120.921 188.415 120.921 188.415C120.921 188.415 120.924 188.416 120.925 188.418C120.927 188.419 120.928 188.421 120.928 188.421C120.928 188.421 120.928 188.422 120.928 188.425Z" fill="#059CC0" stroke="#0475A1"/>
<path d="M126.743 153.782V149.217H151.642V153.782H126.743Z" fill="#059CC0" stroke="#0475A1"/>
<path d="M126.743 190.704V186.139H151.642V190.704H126.743Z" fill="#059CC0" stroke="#0475A1"/>
<path d="M144.52 210.174V136.07L139.194 132.998L133.867 136.07V210.174" fill="#F5F5F4"/>
<mask id="mask6_176_4237" style="mask-type:luminance" maskUnits="userSpaceOnUse" x="133" y="132" width="12" height="79">
<path d="M144.52 210.174V136.07L139.194 132.998L133.867 136.07V210.174" fill="white"/>
</mask>
<g mask="url(#mask6_176_4237)">
<path d="M144.52 136.07H145.52V135.492L145.02 135.204L144.52 136.07ZM139.194 132.998L139.693 132.132L139.194 131.844L138.694 132.132L139.194 132.998ZM133.867 136.07L133.368 135.204L132.867 135.492V136.07H133.867ZM145.52 210.174V136.07H143.52V210.174H145.52ZM145.02 135.204L139.693 132.132L138.694 133.865L144.02 136.936L145.02 135.204ZM138.694 132.132L133.368 135.204L134.367 136.936L139.693 133.865L138.694 132.132ZM132.867 136.07V210.174H134.867V136.07H132.867Z" fill="#0475A1"/>
</g>
<path d="M144.52 210.174V136.07L139.194 132.998L133.867 136.07" stroke="#0475A1" stroke-miterlimit="10"/>
<path d="M139.205 151.499C139.205 151.501 139.204 151.502 139.204 151.502L139.202 151.506C139.2 151.507 139.198 151.509 139.198 151.509C139.198 151.509 139.196 151.509 139.193 151.509C139.191 151.509 139.189 151.509 139.189 151.509L139.185 151.506L139.183 151.502C139.183 151.502 139.182 151.501 139.182 151.499C139.182 151.497 139.183 151.495 139.183 151.495L139.185 151.492C139.186 151.49 139.189 151.489 139.189 151.489C139.189 151.489 139.191 151.488 139.193 151.488C139.196 151.488 139.198 151.489 139.198 151.489C139.198 151.489 139.2 151.49 139.202 151.492L139.204 151.495C139.204 151.495 139.205 151.497 139.205 151.499Z" fill="#059CC0" stroke="#0475A1"/>
<path d="M139.205 188.425C139.205 188.427 139.204 188.428 139.204 188.428C139.204 188.428 139.203 188.43 139.202 188.432C139.2 188.433 139.198 188.434 139.198 188.434C139.198 188.434 139.196 188.435 139.193 188.435C139.191 188.435 139.189 188.434 139.189 188.434L139.185 188.432C139.184 188.43 139.183 188.428 139.183 188.428C139.183 188.428 139.182 188.427 139.182 188.425C139.182 188.422 139.183 188.421 139.183 188.421L139.185 188.418C139.186 188.416 139.189 188.415 139.189 188.415C139.189 188.415 139.191 188.414 139.193 188.414C139.196 188.414 139.198 188.415 139.198 188.415C139.198 188.415 139.2 188.416 139.202 188.418L139.204 188.421C139.204 188.421 139.205 188.422 139.205 188.425Z" fill="#059CC0" stroke="#0475A1"/>
<path d="M14.2549 210.175H154.483" stroke="#0475A1" stroke-miterlimit="10"/>
<path d="M92.8319 150.033L74.1515 175.285L68.2812 176.539L87.3933 190.635L124.873 155.226" fill="#FEF6EE"/>
<mask id="mask7_176_4237" style="mask-type:luminance" maskUnits="userSpaceOnUse" x="68" y="150" width="57" height="41">
<path d="M92.8319 150.033L74.1515 175.285L68.2812 176.539L87.3933 190.635L124.873 155.226" fill="white"/>
</mask>
<g mask="url(#mask7_176_4237)">
<path d="M74.151 175.285L74.3599 176.263L74.7299 176.184L74.9549 175.88L74.151 175.285ZM68.2808 176.539L68.0719 175.561L65.8994 176.026L67.6873 177.344L68.2808 176.539ZM87.3929 190.635L86.7993 191.44L87.472 191.936L88.0796 191.362L87.3929 190.635ZM92.0275 149.438L73.3471 174.691L74.9549 175.88L93.6354 150.628L92.0275 149.438ZM73.9421 174.307L68.0719 175.561L68.4898 177.517L74.3599 176.263L73.9421 174.307ZM67.6873 177.344L86.7993 191.44L87.9864 189.83L68.8744 175.735L67.6873 177.344ZM88.0796 191.362L125.558 155.953L124.185 154.499L86.7061 189.908L88.0796 191.362Z" fill="#0475A1"/>
</g>
<path d="M136.058 155.409C136.058 155.409 134.761 189.729 134.876 206.253L131.025 210.175H155.232L159.973 159.658" fill="#FEF6EE"/>
<mask id="mask8_176_4237" style="mask-type:luminance" maskUnits="userSpaceOnUse" x="131" y="155" width="29" height="56">
<path d="M136.058 155.409C136.058 155.409 134.761 189.729 134.876 206.253L131.025 210.175H155.232L159.973 159.658" fill="white"/>
</mask>
<g mask="url(#mask8_176_4237)">
<path d="M134.877 206.253L135.591 206.954L135.88 206.659L135.877 206.246L134.877 206.253ZM131.026 210.175L130.312 209.474L128.642 211.175H131.026V210.175ZM155.233 210.175V211.175H156.144L156.229 210.268L155.233 210.175ZM136.059 155.409C135.06 155.371 135.06 155.372 135.06 155.372V155.373C135.06 155.374 135.06 155.376 135.06 155.378C135.06 155.382 135.059 155.388 135.059 155.397C135.058 155.413 135.058 155.438 135.056 155.471C135.054 155.536 135.05 155.634 135.045 155.762C135.036 156.017 135.022 156.394 135.004 156.88C134.969 157.851 134.919 159.257 134.859 160.995C134.739 164.472 134.58 169.281 134.425 174.606C134.115 185.25 133.819 197.978 133.877 206.26L135.877 206.246C135.82 198.004 136.115 185.31 136.425 174.664C136.579 169.343 136.738 164.539 136.858 161.064C136.918 159.327 136.968 157.923 137.003 156.952C137.021 156.467 137.035 156.091 137.044 155.836C137.049 155.708 137.052 155.611 137.055 155.546C137.056 155.513 137.057 155.488 137.058 155.472C137.058 155.464 137.058 155.457 137.058 155.453C137.058 155.451 137.059 155.45 137.059 155.449C137.059 155.448 137.059 155.448 137.059 155.447C137.059 155.447 137.059 155.447 136.059 155.409ZM134.164 205.552L130.312 209.474L131.739 210.875L135.591 206.954L134.164 205.552ZM131.026 211.175H155.233V209.175H131.026V211.175ZM156.229 210.268L160.97 159.752L158.979 159.565L154.238 210.081L156.229 210.268Z" fill="#0475A1"/>
</g>
<path d="M154.57 31.2636V31.7636H154.573V35.6277C154.573 38.7695 152.422 41.5084 149.364 42.2593L143.029 43.813V27.7844L148.429 26.4586C151.556 25.6918 154.57 28.0541 154.57 31.2636Z" fill="#F5F5F4" stroke="#0475A1"/>
<path d="M155.073 35.6282C155.073 39.0008 152.764 41.9398 149.484 42.7453L142.529 44.4508" stroke="#0475A1" stroke-miterlimit="10"/>
<path d="M147.823 34.4269C147.823 34.3334 147.898 34.2603 147.988 34.2603C148.078 34.2603 148.154 34.3334 148.154 34.4269C148.154 34.5203 148.078 34.5934 147.988 34.5934C147.898 34.5934 147.823 34.5203 147.823 34.4269Z" fill="#025481" stroke="#0475A1"/>
<path d="M152.976 34.4269C152.976 34.3334 153.051 34.2603 153.141 34.2603C153.231 34.2603 153.307 34.3334 153.307 34.4269C153.307 34.5203 153.231 34.5934 153.141 34.5934C153.051 34.5934 152.976 34.5203 152.976 34.4269Z" fill="#025481" stroke="#0475A1"/>
<path d="M151.631 36.4243V31.2635H154.22" stroke="#0475A1" stroke-miterlimit="10"/>
<path d="M147.355 31.2635H149.944" stroke="#0475A1" stroke-miterlimit="10"/>
<path d="M142.857 35.0954C142.413 34.9026 142.104 34.461 142.104 33.9491C142.104 33.8915 142.104 33.8661 142.107 33.8451L142.108 33.8345C142.12 33.7 142.172 33.6351 142.222 33.5979C142.282 33.5533 142.375 33.5236 142.486 33.531C142.596 33.5385 142.692 33.5811 142.755 33.64C142.809 33.6917 142.857 33.7713 142.857 33.9078V35.0954Z" fill="#F5F5F4" stroke="#0475A1"/>
<path d="M143.357 35.6989C142.387 35.6989 141.604 34.914 141.604 33.9491" stroke="#0475A1" stroke-miterlimit="10"/>
<path d="M151.63 36.4279L150.498 36.7062" stroke="#0475A1" stroke-miterlimit="10" stroke-linecap="round"/>
<path d="M143.357 33.0309C143.357 33.0309 151.252 33.7243 153.474 28.8055C153.474 28.8055 153.817 31.5201 155.073 31.9539" stroke="#0475A1" stroke-miterlimit="10"/>
<path d="M155.073 34.4273C155.073 34.4273 158.655 29.9068 155.422 25.3421C152.191 20.7773 145.334 22.9018 145.334 22.9018C145.334 22.9018 137.53 26.124 126.26 25.8112C121.726 25.6844 119.438 27.0446 118.321 28.7118C116.335 31.6802 113.34 33.787 109.929 34.8463C107.636 35.5604 105.978 37.0417 107.03 40.0337C109.551 47.2128 137.77 43.6719 142.972 40.7596" stroke="#0475A1" stroke-miterlimit="10"/>
<path d="M166.128 62.5506V89.5027L128.327 98.7764V68.9595C128.327 58.3936 135.553 49.1898 145.835 46.6656C156.162 44.1313 166.128 51.9347 166.128 62.5476V62.5506Z" fill="#FEF6EE" stroke="#0475A1"/>
<path d="M159.571 171.745L90.5928 149.771L128.121 99.8567L166.196 90.5156C167.374 101.496 165.743 121.668 163.786 139.276C162.792 148.219 161.717 156.482 160.889 162.509C160.476 165.523 160.124 167.977 159.876 169.677C159.752 170.528 159.654 171.19 159.587 171.639C159.582 171.676 159.576 171.711 159.571 171.745Z" fill="#F38744" stroke="#0475A1"/>
<path d="M89.7656 150.033L159.977 172.4" stroke="#0475A1" stroke-miterlimit="10"/>
<path d="M166.628 89.8946L127.827 99.4136" stroke="#0475A1" stroke-miterlimit="10"/>
<path d="M159.546 48.8265C159.546 48.8265 184.984 70.1129 172.058 89.1569C159.133 108.198 130.598 81.2873 130.598 81.2873C130.598 81.2873 125.239 79.3989 126.025 75.1498L122.558 71.5293L124.45 68.853L157.87 77.6668L151.631 70.113" stroke="#0475A1" stroke-miterlimit="10"/>
<path d="M163.205 96.0657C161.7 97.8581 159.302 99.0225 156.387 99.4369C152.918 99.93 148.771 99.3484 144.707 97.5405C141.092 95.933 138.154 93.6275 136.175 91.0918C134.457 88.8908 133.477 86.5406 133.368 84.3339C136.292 86.7119 141.013 90.214 146.326 92.8435C151.691 95.4981 157.755 97.3115 163.205 96.0657Z" fill="#025481" stroke="#0475A1"/>
<path d="M87.3926 190.635L124.872 155.227" stroke="#0475A1" stroke-miterlimit="10"/>
<path d="M15.4312 97.5385C21.8427 97.5523 27.0617 102.617 27.3134 108.951L3.51172 108.909C3.78783 102.576 9.02155 97.5291 15.4312 97.5385Z" fill="white" stroke="#0475A1"/>
<path d="M47.8373 108.989L34.7227 108.964C34.9788 105.639 37.718 103.008 41.0911 102.913L41.2903 102.914C44.7536 102.919 47.5865 105.597 47.8373 108.989Z" fill="white" stroke="#0475A1"/>
<path d="M15.3574 108.929C15.6313 102.283 21.1234 96.9839 27.8483 96.995C34.5727 97.006 40.0433 102.327 40.2952 108.974L15.3574 108.929Z" fill="white" stroke="#0475A1"/>
<path d="M0.720703 109.402L51.7402 109.494" stroke="#0475A1" stroke-miterlimit="10"/>
<path d="M94.3096 88.2706C98.8848 88.2626 102.627 91.8268 102.894 96.3244L85.7539 96.355C86.0053 91.854 89.737 88.2787 94.3096 88.2706Z" fill="white" stroke="#0475A1"/>
<path d="M80.0453 96.3653L70.7383 96.3812C70.9776 94.0909 72.8756 92.291 75.2158 92.2039L75.3836 92.2036C77.8 92.1986 79.7906 94.0214 80.0453 96.3653Z" fill="white" stroke="#0475A1"/>
<path d="M85.2269 87.8718C90.0288 87.8652 93.9584 91.6122 94.2262 96.3415L76.2539 96.3722C76.5057 91.6434 80.4212 87.8799 85.2269 87.8718Z" fill="white" stroke="#0475A1"/>
<path d="M105.081 96.8201L67.7344 96.8882" stroke="#0475A1" stroke-miterlimit="10"/>
<path d="M88.8626 71.7028C88.3562 71.9376 87.7773 71.9617 87.2532 71.7699C86.729 71.5781 86.3026 71.1861 86.0678 70.6802L71.0878 38.4111C70.8531 37.9052 70.829 37.3269 71.0209 36.8033C71.2128 36.2797 71.6049 35.8536 72.1112 35.6188C72.6175 35.3841 73.1964 35.3599 73.7205 35.5517C74.2446 35.7434 74.6709 36.1353 74.9058 36.6411L89.8858 68.9103C90.1206 69.4162 90.1447 69.9946 89.9529 70.5182C89.761 71.0419 89.3689 71.468 88.8626 71.7028Z" fill="#059CC0" stroke="#0475A1"/>
<path d="M58.5379 6.3773C55.6447 7.71887 53.2139 9.88804 51.554 12.6101C49.8941 15.3321 49.0791 18.485 49.212 21.6701C49.345 24.8551 50.42 27.9292 52.301 30.5035C54.182 33.0779 56.7846 35.0369 59.7796 36.1329C62.7746 37.229 66.0275 37.4128 69.127 36.6611C72.2265 35.9094 75.0334 34.256 77.1927 31.91C79.3521 29.5639 80.7669 26.6305 81.2582 23.4808C81.7495 20.331 81.2952 17.1064 79.9528 14.2147C78.149 10.3406 74.8811 7.33931 70.8665 5.87015C66.8519 4.40099 62.4182 4.58338 58.5379 6.3773ZM73.8822 39.434C70.234 41.1256 66.1658 41.698 62.192 41.0789C58.218 40.4597 54.5171 38.6767 51.5571 35.9554C48.5971 33.234 46.5111 29.6966 45.5627 25.7905C44.6143 21.8843 44.8462 17.7848 46.2291 14.0103C47.6119 10.2359 50.0836 6.95596 53.3316 4.58538C56.5796 2.21481 60.4581 0.860056 64.4766 0.692479C68.495 0.524902 72.473 1.55202 75.9073 3.64394C79.3415 5.73576 82.0779 8.79832 83.7705 12.4443C86.034 17.3347 86.2642 22.9228 84.4104 27.9825C82.5567 33.0423 78.7704 37.1607 73.8822 39.434Z" fill="#059CC0" stroke="#0475A1"/>
<path d="M137.05 50.3287L119.82 65.6636C119.82 65.6636 91.8172 44.7784 78.8916 46.6668V48.8563L83.1479 51.8601C83.1479 51.8601 82.3587 57.9976 88.6663 58.9418C88.6663 58.9418 105.444 93.2498 127.831 82.5476" stroke="#0475A1" stroke-miterlimit="10"/>
</g>
<defs>
<clipPath id="clip0_176_4237">
<rect width="176" height="211" fill="white" transform="translate(0.720703)"/>
</clipPath>
</defs>
</svg>
