<?xml version="1.0" encoding="UTF-8"?> <svg xmlns="http://www.w3.org/2000/svg" id="Layer_1" data-name="Layer 1" width="464.67" height="137.24" viewBox="0 0 464.67 137.24"> <defs> <style>.cls-1{fill:#00202c;}.cls-2{fill:#ff5429;}</style> </defs> <title>logo-granter</title> <path class="cls-1" d="M167.8,82.26a.59.59,0,0,0,.51.86h17.62V97.88q-1.77.39-3.88.74t-4.18.59q-2.06.25-4,.39l-3.39.25q-5.9.29-9.24-1.57a11.57,11.57,0,0,1-5-5.36,23.5,23.5,0,0,1-2-8.25Q154,79.9,154,74.39t.44-10.12a20.34,20.34,0,0,1,2.16-7.71,11.54,11.54,0,0,1,5.16-4.91q3.44-1.72,9.44-1.72,1.28,0,3.14.1t3.93.25q2.06.15,4,.39l3.44.44,4.89.7,4.87.86a.64.64,0,0,0,.76-.63l.07-9.36a.64.64,0,0,0-.4-.6l-1.49-.62a6.33,6.33,0,0,0-.64-.27,35.91,35.91,0,0,0-5.06-1.38q-2.9-.59-6-.93t-6.29-.54q-3.15-.2-5.8-.2-9.73,0-15.58,2.75a20.54,20.54,0,0,0-8.89,7.57,28.65,28.65,0,0,0-4,11.5,104.51,104.51,0,0,0-.93,14.45,111.48,111.48,0,0,0,.88,14.5,32.56,32.56,0,0,0,3.69,11.74,19.82,19.82,0,0,0,8.06,7.86q5.26,2.85,13.91,2.85,3.24,0,7.08-.34t7.72-1a63.19,63.19,0,0,0,7.57-1.72,40,40,0,0,0,6.63-2.56s.79-.41,1.44-.85a1,1,0,0,0,.42-.8l0-31.57a.89.89,0,0,0-.89-.89H173.94a.64.64,0,0,0-.57.34Z"></path> <path class="cls-1" d="M233.62,57.17a69.24,69.24,0,0,0-10.55,1.29c-2.65.49-3.38.7-5.74,1.29l-1.57-1.59a.64.64,0,0,0-.46-.19h-6.86a.64.64,0,0,0-.64.64v50.91a.64.64,0,0,0,.64.64H219a.64.64,0,0,0,.64-.64v-2.39h0V70.07s6.32-.87,7.86-1.12l.83-.13c.87-.14,2.4-.43,2.94-.54a.41.41,0,0,0,.29-.21l5.55-10.16a.58.58,0,0,0-.52-.87C236,57.05,235,57.08,233.62,57.17Z"></path> <path class="cls-1" d="M457.29,57.17a69.24,69.24,0,0,0-10.55,1.29c-2.65.49-3.38.7-5.74,1.29l-1.57-1.59A.64.64,0,0,0,439,58h-6.86a.64.64,0,0,0-.64.64v50.91a.64.64,0,0,0,.64.64h10.6a.64.64,0,0,0,.64-.64v-2.39h0V70.07s6.32-.87,7.86-1.12l.83-.13c1.07-.17,3.13-.58,3.13-.58l5.65-10.33a.58.58,0,0,0-.52-.87C459.66,57.05,458.69,57.08,457.29,57.17Z"></path> <path class="cls-1" d="M319.25,57.1q-1.87,0-4.37.2t-5.26.59q-2.75.39-5.55.88t-5.16,1.08l-1.3-1.54a.64.64,0,0,0-.49-.23H290a.64.64,0,0,0-.64.64v7l0,0v41.4s0,.05,0,.08v2.31a.64.64,0,0,0,.64.64h10.6a.64.64,0,0,0,.64-.64V103h0v-33l3.39-.69q1.92-.39,4.08-.74t4.42-.54q2.26-.2,4.32-.2,3.24,0,4.57,1.13a3.54,3.54,0,0,1,1.33,2.8v31.35h0v6.32a.64.64,0,0,0,.64.64h10.71a.64.64,0,0,0,.64-.64v-2.39h0V71A13.68,13.68,0,0,0,331.54,61Q327.7,57.1,319.25,57.1Z"></path> <path class="cls-1" d="M356,58.18V46.45a.64.64,0,0,0-.65-.64l-11,.09a.64.64,0,0,0-.64.64v50a18.79,18.79,0,0,0,1.57,8.35,10.57,10.57,0,0,0,4.47,4.72,15,15,0,0,0,6.88,1.67,38.33,38.33,0,0,0,8.7-.88l2.95-.59a4.35,4.35,0,0,0,.67-.17l2.2-.56a.59.59,0,0,0,.38-.83l-.68-1.34v0l-1.94-3.88-1.18-2.39a.64.64,0,0,0-.64-.36l-1.35.14-4.37.39q-1.23.1-2.21.1-2,0-2.56-1a7.45,7.45,0,0,1-.59-3.54V69h14l4.84-10a.59.59,0,0,0-.53-.84Z"></path> <path class="cls-1" d="M281.63,76.36a41.78,41.78,0,0,0-.74-8.26,14.44,14.44,0,0,0-2.7-6.14,12.76,12.76,0,0,0-5.31-3.88,22.06,22.06,0,0,0-8.35-1.38A118.94,118.94,0,0,0,248.14,58c-.51.08-.94.15-1.32.23l-2.18.41a.64.64,0,0,0-.47.36l-2.87,6.18c-.53,1.11-.94,2-.94,2v0l-1.05,2.27a.59.59,0,0,0,.61.83l2.74-.37h.17l1.1-.17,3-.4v0c3-.45,5.57-.79,6.73-1a45.77,45.77,0,0,1,5.7-.59h1.47a17,17,0,0,1,3.93.44A9.15,9.15,0,0,1,268,69.63a6.78,6.78,0,0,1,2.21,2.8,11.2,11.2,0,0,1,.79,4.52l-20,2.26a34.26,34.26,0,0,0-6.44,1.23,11.23,11.23,0,0,0-4.47,2.51,10.26,10.26,0,0,0-2.65,4.52,25,25,0,0,0-.88,7.27v1.38a23.49,23.49,0,0,0,1,7.42,9.25,9.25,0,0,0,3.1,4.52,12.21,12.21,0,0,0,5.31,2.21,42.56,42.56,0,0,0,7.62.59h.88q2.06,0,4.42,0t4.57-.29q2.21-.25,4.18-.59A15.18,15.18,0,0,0,271,109l.39-.1v.64a.64.64,0,0,0,.64.64h8.84a.64.64,0,0,0,.64-.64V103.2h0V100ZM271,96.7a15.45,15.45,0,0,1-3.73,1.92A26.33,26.33,0,0,1,263,99.75a40.8,40.8,0,0,1-4.37.54q-2.16.15-4,.15h-.88a22.76,22.76,0,0,1-3.34-.2,3.57,3.57,0,0,1-1.92-.79,3.09,3.09,0,0,1-.88-1.57,10.85,10.85,0,0,1-.25-2.56v-.69q0-2.55,1.47-3.54a11.94,11.94,0,0,1,4.62-1.47q1.77-.29,4.08-.54t4.72-.54q2.41-.29,4.72-.54l4.08-.44Z"></path> <path class="cls-1" d="M414.46,98.37a17,17,0,0,1-3.14.88q-2,.39-4.18.64t-4.32.44q-2.11.2-3.49.2a12.13,12.13,0,0,1-5.11-.74,6.7,6.7,0,0,1-3-2.48,10.7,10.7,0,0,1-1.52-3.91,32.22,32.22,0,0,1-.54-5l29.68-.2H423s.16-2.56.2-4h0c0-.11,0-.21,0-.32v-.29q0-2.46-.1-4.18t-.2-2.51A37.23,37.23,0,0,0,421,67.66a15.59,15.59,0,0,0-3.88-6.14A14.6,14.6,0,0,0,411,58.13a32.92,32.92,0,0,0-8.8-1h-3q-12.09,0-17.45,6.73t-5.36,18.92v1.56c0,.54,0,1.08.05,1.62s0,1,0,1.48v1a48,48,0,0,0,1.18,9.09,19.42,19.42,0,0,0,3.29,7.27,15.17,15.17,0,0,0,6.24,4.82,25.47,25.47,0,0,0,10.12,1.72q2.46,0,5.46-.19t6.09-.63a60.62,60.62,0,0,0,6-1.17,30.58,30.58,0,0,0,5.31-1.8l.17-.09h0l2.34-1.22a.59.59,0,0,0,.22-.84l-5-7.84a.64.64,0,0,0-.78-.25ZM389.64,73.46a6.71,6.71,0,0,1,1.67-3.29,7.23,7.23,0,0,1,3.39-1.87,22.36,22.36,0,0,1,5.7-.59,23.47,23.47,0,0,1,5.85.59,6.28,6.28,0,0,1,5,5.16,27.47,27.47,0,0,1,.54,4.86H389.1A27.47,27.47,0,0,1,389.64,73.46Z"></path> <path class="cls-2" d="M109.81,53V96.84L63.75,123.71V111.29L99.2,90.62v-44a.25.25,0,0,0-.13-.22l-6.58-3.8a.25.25,0,0,0-.38.22V86.55L63.75,103.09V90.91L81.43,80.6V36.35a.25.25,0,0,0-.13-.22l-6.58-3.8a.25.25,0,0,0-.38.22v44L63.75,82.71v-80a.57.57,0,0,0-.86-.5L4,36.28a.46.46,0,0,0-.23.4V104a.46.46,0,0,0,.23.4l6.47,3.74a.25.25,0,0,0,.38-.22V40.49L56.91,13.62V26L21.46,46.72v67.59a.25.25,0,0,0,.13.22l6.58,3.8a.25.25,0,0,0,.38-.22V50.79L56.91,34.24V46.42L39.24,56.73v67.83a.25.25,0,0,0,.13.22l6.58,3.8a.25.25,0,0,0,.38-.22V60.8l10.59-6.18v79.93a.57.57,0,0,0,.86.5l58.88-34a.46.46,0,0,0,.23-.4V56.94a.46.46,0,0,0-.23-.4l-6.47-3.74A.25.25,0,0,0,109.81,53Z"></path> </svg> 