<svg width="25" height="24" viewBox="0 0 25 24" fill="none" xmlns="http://www.w3.org/2000/svg">
<path d="M21.5 21V5H3.5V13H1.5V5C1.5 4.45 1.69583 3.97917 2.0875 3.5875C2.47917 3.19583 2.95 3 3.5 3H21.5C22.05 3 22.5208 3.19583 22.9125 3.5875C23.3042 3.97917 23.5 4.45 23.5 5V19C23.5 19.55 23.3042 20.0208 22.9125 20.4125C22.5208 20.8042 22.05 21 21.5 21ZM9.5 14C8.4 14 7.45833 13.6083 6.675 12.825C5.89167 12.0417 5.5 11.1 5.5 10C5.5 8.9 5.89167 7.95833 6.675 7.175C7.45833 6.39167 8.4 6 9.5 6C10.6 6 11.5417 6.39167 12.325 7.175C13.1083 7.95833 13.5 8.9 13.5 10C13.5 11.1 13.1083 12.0417 12.325 12.825C11.5417 13.6083 10.6 14 9.5 14ZM9.5 12C10.05 12 10.5208 11.8042 10.9125 11.4125C11.3042 11.0208 11.5 10.55 11.5 10C11.5 9.45 11.3042 8.97917 10.9125 8.5875C10.5208 8.19583 10.05 8 9.5 8C8.95 8 8.47917 8.19583 8.0875 8.5875C7.69583 8.97917 7.5 9.45 7.5 10C7.5 10.55 7.69583 11.0208 8.0875 11.4125C8.47917 11.8042 8.95 12 9.5 12ZM1.5 22V19.2C1.5 18.6333 1.64583 18.1125 1.9375 17.6375C2.22917 17.1625 2.61667 16.8 3.1 16.55C4.13333 16.0333 5.18333 15.6458 6.25 15.3875C7.31667 15.1292 8.4 15 9.5 15C10.6 15 11.6833 15.1292 12.75 15.3875C13.8167 15.6458 14.8667 16.0333 15.9 16.55C16.3833 16.8 16.7708 17.1625 17.0625 17.6375C17.3542 18.1125 17.5 18.6333 17.5 19.2V22H1.5ZM3.5 20H15.5V19.2C15.5 19.0167 15.4542 18.85 15.3625 18.7C15.2708 18.55 15.15 18.4333 15 18.35C14.1 17.9 13.1917 17.5625 12.275 17.3375C11.3583 17.1125 10.4333 17 9.5 17C8.56667 17 7.64167 17.1125 6.725 17.3375C5.80833 17.5625 4.9 17.9 4 18.35C3.85 18.4333 3.72917 18.55 3.6375 18.7C3.54583 18.85 3.5 19.0167 3.5 19.2V20Z" fill="#F8FAFC"/>
</svg>
