<svg width="19" height="20" viewBox="0 0 19 20" fill="none" xmlns="http://www.w3.org/2000/svg">
<path d="M12.1839 2.17022L12.3033 2.5H12.654H16.834C17.6578 2.5 18.334 3.17614 18.334 4V18C18.334 18.8239 17.6578 19.5 16.834 19.5H2.83398C2.01013 19.5 1.33398 18.8239 1.33398 18V4C1.33398 3.17614 2.01013 2.5 2.83398 2.5H7.01398H7.36471L7.48412 2.17022C7.83673 1.19634 8.75679 0.5 9.83398 0.5C10.9112 0.5 11.8312 1.19634 12.1839 2.17022ZM11.834 16.5H12.334V16V14V13.5H11.834H4.83398H4.33398V14V16V16.5H4.83398H11.834ZM14.834 12.5H15.334V12V10V9.5H14.834H4.83398H4.33398V10V12V12.5H4.83398H14.834ZM14.834 8.5H15.334V8V6V5.5H14.834H4.83398H4.33398V6V8V8.5H4.83398H14.834ZM11.334 3C11.334 2.17386 10.6601 1.5 9.83398 1.5C9.00784 1.5 8.33398 2.17386 8.33398 3C8.33398 3.82614 9.00784 4.5 9.83398 4.5C10.6601 4.5 11.334 3.82614 11.334 3Z" fill="white" stroke="white"/>
</svg>
